HIERARCHY
ROOT Hips
{
	OFFSET	0.00	0.00	0.00
	CHANNELS 6 Xposition Yposition Zposition Zrotation Xrotation Yrotation
	JOINT LeftUpLeg
	{
		OFFSET	 0.126116	-0.014019	-0.065224
		CHANNELS 3 Zrotation Xrotation Yrotation
		JOINT LeftLeg
		{
			OFFSET	 0.000000	 0.000000	 0.569914
			CHANNELS 3 Zrotation Xrotation Yrotation
			JOINT LeftFoot
			{
				OFFSET	 0.000000	 0.000000	 0.544423
				CHANNELS 3 Zrotation Xrotation Yrotation
				JOINT LeftToeBase
				{
					OFFSET	 0.000000	 0.000000	 0.207117
					CHANNELS 3 Zrotation Xrotation Yrotation
					End Site
					{
						OFFSET	 0.000000	 0.000000	 0.207117
					}
				}
			}
		}
	}
	JOINT RightUpLeg
	{
		OFFSET	-0.124023	-0.008373	-0.065224
		CHANNELS 3 Zrotation Xrotation Yrotation
		JOINT RightLeg
		{
			OFFSET	 0.000000	 0.000000	 0.570047
			CHANNELS 3 Zrotation Xrotation Yrotation
			JOINT RightFoot
			{
				OFFSET	 0.000000	 0.000000	 0.544354
				CHANNELS 3 Zrotation Xrotation Yrotation
				JOINT RightToeBase
				{
					OFFSET	 0.000000	 0.000000	 0.207540
					CHANNELS 3 Zrotation Xrotation Yrotation
					End Site
					{
						OFFSET	 0.000000	 0.000000	 0.207540
					}
				}
			}
		}
	}
	JOINT Spine
	{
		OFFSET	 0.000184	-0.007763	 0.117403
		CHANNELS 3 Zrotation Xrotation Yrotation
		JOINT Spine1
		{
			OFFSET	 0.000000	 0.000000	 0.137269
			CHANNELS 3 Zrotation Xrotation Yrotation
			JOINT Spine2
			{
				OFFSET	 0.000000	 0.000000	 0.156879
				CHANNELS 3 Zrotation Xrotation Yrotation
				JOINT LeftShoulder
				{
					OFFSET	 0.080501	-0.002496	 0.160144
					CHANNELS 3 Zrotation Xrotation Yrotation
					JOINT LeftArm
					{
						OFFSET	 0.000000	 0.000000	 0.164363
						CHANNELS 3 Zrotation Xrotation Yrotation
						JOINT LeftForeArm
						{
							OFFSET	 0.000000	 0.000000	 0.364576
							CHANNELS 3 Zrotation Xrotation Yrotation
							JOINT LeftHand
							{
								OFFSET	 0.000000	 0.000000	 0.360812
								CHANNELS 3 Zrotation Xrotation Yrotation
								JOINT LeftHandIndex1
								{
									OFFSET	 0.000000	 0.000000	 0.086006
									CHANNELS 3 Zrotation Xrotation Yrotation
									JOINT LeftHandIndex2
									{
										OFFSET	 0.000000	 0.000000	 0.047237
										CHANNELS 3 Zrotation Xrotation Yrotation
										JOINT LeftHandIndex3
										{
											OFFSET	-0.004284	-0.000551	 0.038165
											CHANNELS 3 Zrotation Xrotation Yrotation
											End Site
											{
												OFFSET	-0.004284	-0.000551	 0.038165
											}
										}
									}
								}
							}
						}
					}
				}
				JOINT Neck
				{
					OFFSET	 0.000000	 0.000000	 0.176489
					CHANNELS 3 Zrotation Xrotation Yrotation
					JOINT Head
					{
						OFFSET	 0.000000	-0.001747	 0.077940
						CHANNELS 3 Zrotation Xrotation Yrotation
						End Site
						{
							OFFSET	 0.000000	-0.001747	 0.077940
						}
					}
				}
				JOINT RightShoulder
				{
					OFFSET	-0.080363	 0.000306	 0.159706
					CHANNELS 3 Zrotation Xrotation Yrotation
					JOINT RightArm
					{
						OFFSET	 0.000000	 0.000000	 0.164196
						CHANNELS 3 Zrotation Xrotation Yrotation
						JOINT RightForeArm
						{
							OFFSET	 0.000000	 0.000000	 0.365611
							CHANNELS 3 Zrotation Xrotation Yrotation
							JOINT RightHand
							{
								OFFSET	 0.000000	 0.000000	 0.360648
								CHANNELS 3 Zrotation Xrotation Yrotation
								JOINT RightHandIndex1
								{
									OFFSET	 0.000000	 0.000000	 0.069977
									CHANNELS 3 Zrotation Xrotation Yrotation
									JOINT RightHandIndex2
									{
										OFFSET	 0.000000	 0.000000	 0.052305
										CHANNELS 3 Zrotation Xrotation Yrotation
										JOINT RightHandIndex3
										{
											OFFSET	 0.009002	-0.000782	 0.042196
											CHANNELS 3 Zrotation Xrotation Yrotation
											End Site
											{
												OFFSET	 0.009002	-0.000782	 0.042196
											}
										}
									}
								}
							}
						}
					}
				}
			}
		}
	}
}
MOTION
Frames:    8
Frame Time: 0.03333334
-0.715522	-0.006176	 1.273042	-177.081200	-5.523566	-0.681359	 8.113509	 6.571322	 177.688200	-3.478773	-5.548561	-0.479057	-9.105805	 69.825240	-0.117096	-2.385833	 28.452760	 0.000004	-7.685017	 3.204140	-177.639700	 1.606032	-13.441030	 0.424685	 7.570758	 74.346890	-0.772054	 2.384659	 28.388700	-0.000001	 6.930685	 6.173179	-1.643027	 4.832405	 13.056110	 9.370576	-16.773920	-7.986425	-15.053380	-91.776180	 78.527420	 180.000000	 5.398894	-1.105928	 6.040355	-14.422550	-3.321551	-39.804550	 0.392682	-22.850730	-2.451694	-4.130354	 21.526190	 0.991307	-5.167926	 0.731697	 3.519349	-1.378229	 35.397820	-2.634230	-7.685930	 0.780698	 3.169853	-7.922616	-16.321100	-5.008243	 89.782170	 78.203890	 179.999900	 38.233550	-2.199163	 8.250320	 7.208363	-2.407022	 27.123240	 22.575480	 19.786450	-17.421110	 5.716295	 19.173350	-3.684826	 5.027458	 0.246833	-9.377971	-2.350882	 35.473990	 5.254307
-0.715475	-0.006179	 1.273038	-177.035900	-5.607954	-0.689539	 8.382021	 6.703484	 177.631100	-3.641127	-5.433107	-0.484607	-8.647609	 69.587440	-0.416009	-2.385833	 28.452760	 0.000004	-7.827734	 3.311964	-177.598100	 1.727294	-13.412500	 0.451959	 7.395225	 74.122400	-0.709488	 2.384659	 28.388700	-0.000001	 6.917186	 6.245667	-1.648442	 4.853996	 13.171280	 9.396592	-16.880290	-8.090225	-15.147740	-91.776210	 78.527420	-180.000000	 5.563212	-0.985873	 6.186129	-14.493170	-3.290039	-40.115010	 0.205106	-23.013400	-2.449763	-4.130354	 21.526190	 0.991307	-5.167926	 0.731697	 3.519349	-1.378229	 35.397820	-2.634230	-7.783642	 0.828057	 3.245049	-8.005914	-16.425100	-5.120993	 89.782160	 78.203890	 179.999900	 38.686550	-1.942488	 8.136935	 7.319329	-2.389089	 27.511030	 23.195530	 19.989930	-17.667710	 5.716295	 19.173350	-3.684826	 5.027458	 0.246833	-9.377971	-2.350882	 35.473990	 5.254307
-0.715236	-0.006212	 1.273004	-176.803000	-6.061561	-0.734688	 9.781854	 7.269481	 177.320200	-4.489528	-5.111323	-0.532272	-6.405641	 68.492800	-1.830537	-2.385833	 28.452760	 0.000004	-8.578249	 3.896189	-177.365700	 2.359532	-13.255840	 0.591965	 6.482756	 72.953910	-0.389246	 2.384659	 28.388700	-0.000001	 6.837182	 6.657793	-1.670835	 4.959341	 13.732520	 9.523484	-17.435470	-8.617235	-15.635300	-91.776200	 78.527400	-180.000000	 6.475152	-0.233926	 7.037354	-14.921030	-3.127752	-41.994640	-0.736446	-23.846530	-2.455128	-4.130354	 21.526190	 0.991307	-5.167926	 0.731697	 3.519349	-1.378229	 35.397820	-2.634230	-8.295989	 1.071826	 3.641297	-8.445931	-16.963380	-5.720086	 89.782040	 78.203820	-180.000000	 41.150050	-0.440785	 7.354006	 7.905867	-2.297601	 29.894040	 26.570810	 20.742340	-19.254920	 5.716295	 19.173350	-3.684826	 5.027458	 0.246833	-9.377971	-2.350882	 35.473990	 5.254307
-0.714823	-0.006293	 1.272871	-176.388800	-6.898970	-0.829144	 12.274560	 7.840943	 176.708000	-6.014813	-5.489661	-0.719488	-2.788332	 67.049930	-3.979763	-2.385833	 28.452760	 0.000004	-9.940326	 4.915898	-176.886000	 3.491614	-13.134340	 0.844630	 4.926608	 70.982190	 0.106800	 2.384659	 28.388700	-0.000001	 6.639111	 7.475203	-1.673842	 5.105681	 14.589270	 9.711938	-18.425560	-9.493532	-16.487340	-91.776210	 78.527420	-180.000000	 8.313099	 1.638704	 8.921314	-15.708200	-2.823595	-46.456510	-2.423998	-25.407370	-2.519507	-4.130354	 21.526190	 0.991307	-5.167926	 0.731697	 3.519349	-1.378229	 35.397820	-2.634230	-9.222552	 1.493542	 4.366298	-9.255748	-17.907030	-6.837352	 89.782050	 78.203890	-180.000000	 45.910530	 2.948416	 5.108479	 8.969790	-2.095152	 35.589800	 33.027740	 20.583730	-23.030760	 5.716295	 19.173350	-3.684826	 5.027458	 0.246833	-9.377971	-2.350882	 35.473990	 5.254307
-0.714790	-0.006408	 1.272564	-176.197400	-7.195764	-0.823638	 12.726500	 7.256095	 176.449800	-6.311770	-7.401097	-1.007674	-2.859498	 67.770180	-3.591927	-2.385833	 28.452760	 0.000004	-10.188640	 5.231585	-176.755700	 3.682440	-13.533750	 0.914676	 5.369460	 70.966400	-0.574296	 2.384659	 28.388700	-0.000001	 6.260880	 7.819167	-1.829640	 4.860140	 14.372010	 10.003340	-18.499120	-9.295992	-16.658770	-91.776200	 78.527360	-180.000000	 7.924637	 4.549571	 10.882140	-15.909190	-3.186291	-52.093350	-2.832519	-25.700560	-2.612723	-4.130354	 21.526190	 0.991307	-5.167926	 0.731697	 3.519349	-1.378229	 35.397820	-2.634230	-9.402677	 1.545493	 4.679352	-9.395318	-17.884510	-7.366252	 89.782140	 78.203850	 180.000000	 45.444950	 5.096797	 1.565502	 9.475103	-2.265158	 43.101330	 35.553520	 17.897070	-23.758930	 5.716295	 19.173350	-3.684826	 5.027458	 0.246833	-9.377971	-2.350882	 35.473990	 5.254307
-0.714875	-0.006545	 1.272162	-176.093100	-7.315950	-0.790490	 12.530050	 6.502941	 176.303800	-6.225060	-9.440643	-1.268556	-4.160468	 68.997260	-2.328410	-2.385833	 28.452760	 0.000004	-10.077900	 5.355693	-176.737900	 3.578779	-14.079520	 0.925500	 6.460960	 71.585370	-1.644065	 2.384659	 28.388700	-0.000001	 5.812849	 7.994696	-2.022382	 4.469798	 13.804330	 10.310890	-18.283600	-8.775125	-16.610300	-91.776210	 78.527380	-180.000000	 6.662578	 8.214876	 12.761950	-16.039090	-3.754447	-57.961420	-2.843750	-25.571410	-2.690864	-4.130354	 21.526190	 0.991307	-5.167926	 0.731697	 3.519349	-1.378229	 35.397820	-2.634230	-9.343247	 1.487875	 4.833887	-9.317945	-17.589650	-7.655448	 89.782130	 78.203890	 180.000000	 43.057480	 6.971094	-2.096469	 9.831543	-2.534658	 50.864250	 36.452540	 14.591360	-23.337880	 5.716295	 19.173350	-3.684826	 5.027458	 0.246833	-9.377971	-2.350882	 35.473990	 5.254307
-0.715026	-0.006739	 1.271544	-175.994700	-7.490531	-0.874263	 12.504960	 5.841205	 176.167600	-6.260941	-11.564050	-1.557558	-5.774860	 70.338730	-0.627809	-2.385833	 28.452760	 0.000004	-10.029110	 5.450741	-176.550400	 3.570549	-14.981210	 0.981315	 7.163528	 72.402150	-2.378476	 2.384659	 28.388700	-0.000001	 5.230779	 8.272693	-2.032798	 3.973876	 13.050840	 10.500960	-18.073450	-8.253335	-16.482640	-91.776200	 78.527360	-180.000000	 5.152993	 13.577100	 14.885060	-16.371940	-4.305180	-64.927520	-2.972406	-25.543410	-2.770662	-4.130354	 21.526190	 0.991307	-5.167926	 0.731697	 3.519349	-1.378229	 35.397820	-2.634230	-9.283393	 1.409600	 4.875556	-9.255219	-17.344090	-7.749131	 89.782130	 78.203890	 180.000000	 40.203600	 9.971446	-6.405101	 10.290030	-2.801304	 60.227560	 37.674630	 10.727680	-22.403960	 5.716295	 19.173350	-3.684826	 5.027458	 0.246833	-9.377971	-2.350882	 35.473990	 5.254307
-0.715211	-0.006984	 1.270731	-175.903900	-7.701114	-1.019526	 12.556660	 5.238389	 176.000500	-6.368904	-13.789390	-1.877959	-7.876285	 71.772240	 1.635979	-2.385833	 28.452760	 0.000004	-10.015310	 5.586723	-176.259900	 3.612739	-16.087880	 1.063680	 7.777050	 73.387170	-3.056919	 2.384659	 28.388700	-0.000001	 4.513461	 8.606521	-1.942068	 3.361126	 12.117540	 10.616510	-17.854360	-7.688073	-16.299040	-91.776180	 78.527420	-180.000000	 3.414773	 20.839340	 16.827010	-16.814450	-4.778969	-71.830020	-3.170414	-25.566950	-2.852336	-4.130354	 21.526190	 0.991307	-5.167926	 0.731697	 3.519349	-1.378229	 35.397820	-2.634230	-9.224899	 1.322629	 4.859070	-9.202059	-17.129160	-7.741346	 89.782070	 78.203890	-180.000000	 36.519420	 14.089160	-10.772350	 10.816700	-3.000758	 70.305680	 38.573730	 6.136497	-20.589950	 5.716295	 19.173350	-3.684826	 5.027458	 0.246833	-9.377971	-2.350882	 35.473990	 5.254307
